<?xml version="1.0" encoding="UTF-8"?>
<svg xmlns="http://www.w3.org/2000/svg" version="1.1" viewBox="0 0 1162.2 841.9">
  <defs>
    <style>
      .cls-1 {
        fill: #1e1e1c;
      }
    </style>
  </defs>
  <!-- Generator: Adobe Illustrator 28.7.3, SVG Export Plug-In . SVG Version: 1.2.0 Build 164)  -->
  <g>
    <g id="Calque_1">
      <g id="tracés_groupés">
        <path class="cls-1" d="M907.1,670.1h-1.8,1.8Z"/>
        <path class="cls-1" d="M943.3,196.3v1.8h0v-1.8Z"/>
        <path class="cls-1" d="M181.5,643.1h0v-.7.7Z"/>
        <path class="cls-1" d="M251.3,160.3h-1.3,1.3Z"/>
        <polygon class="cls-1" points="218.8 639.3 218.8 639.5 218.8 639.3 218.8 639.3"/>
        <path class="cls-1" d="M956.9,141.2c-16.5-14.7-35.1-17.8-44.8-18.2H249.3c-16,0-36.7,6.6-51.2,24.6-13.4,16.5-16,35.1-16.5,44.8v450.7c.7,15.8,7.2,35.6,24.4,49.6,16.2,13.4,34.9,16,44.3,16.2h.4l442.8-1.5h213.8c16.9,0,39.1-6.1,54.9-23.7,14.7-16.5,17.8-35.1,18.2-45V195.2c0-16.9-6.4-38.6-23.7-54.2v.2ZM227,171.1c7.9-9.9,19.1-10.8,23.1-10.8h660.6c4.8.2,13.6,1.8,21.3,8.8,2,2,3.7,4,5.3,5.9l-352.6,290.9h0l-5.7,4.8h0L224.8,174.8c.7-1.3,1.5-2.6,2.6-3.7h-.4ZM576.7,472.3l-1.8,1.5h0l1.8-1.5ZM218.8,218.9l247.9,207-247.9,205.5V218.9ZM218.8,639.5h0ZM907.5,670.1h-214v18.7-18.7l-442.1,1.5c-3.3,0-10.3-1.1-17.1-4.8l261.7-216.7,72.9,60.8h0c3.1,1.8,6.6,2.9,10.1,2.9s8.8-1.5,12.5-4.8l9.7-8.6h.4l61.9-51.4,261.9,216.7c-7,3.5-14.1,4.2-17.6,4.2l-.2.2ZM943.3,632.5l-250.7-207.5,250.7-206.8v414.3ZM943.3,198.1h0v-1.8,1.8Z"/>
        <polygon class="cls-1" points="576.7 472.3 575.1 473.8 574.9 473.8 576.7 472.3"/>
        <polygon class="cls-1" points="576.7 472.3 575.1 473.8 574.9 473.8 576.7 472.3"/>
        <path class="cls-1" d="M943.3,196.3v1.8h0v-1.8Z"/>
        <polygon class="cls-1" points="218.8 639.3 218.8 639.5 218.8 639.3 218.8 639.3"/>
        <path class="cls-1" d="M584.4,465.9l-5.7,4.8h0l2.9-2.6c.9-.9,2-1.5,3.1-2.2h-.2Z"/>
      </g>
    </g>
  </g>
</svg>