<?xml version="1.0" encoding="UTF-8"?>
<svg xmlns="http://www.w3.org/2000/svg" version="1.1" viewBox="0 0 1162.2 841.9">
  <defs>
    <style>
      .cls-1 {
        fill: #1d1d1b;
      }
    </style>
  </defs>
  <!-- Generator: Adobe Illustrator 28.7.3, SVG Export Plug-In . SVG Version: 1.2.0 Build 164)  -->
  <g>
    <g id="Calque_1">
      <path class="cls-1" d="M580.5,56.8c-201.1,0-364,162.9-364,364s162.9,364,364,364,364-162.9,364-364S781.6,56.8,580.5,56.8ZM577.1,737.9c-176.9,0-320.4-143.4-320.4-320.4S400.1,97.2,577.1,97.2s320.4,143.4,320.4,320.4-143.4,320.4-320.4,320.4Z"/>
      <path class="cls-1" d="M751.9,609.1c-4.3,3.9-9.5,5.9-14.8,5.9s-11.6-2.2-15.8-6.9l-158.9-169.4c-2.2-2.4-3.9-5.1-4.9-7.9-1.4-3-2.4-6.3-2.4-9.9v-172.7c0-12,9.7-21.7,21.7-21.7s21.7,9.7,21.7,21.7v165.6l154.2,164.3c8.3,8.7,7.7,22.5-1,30.8l.2.2Z"/>
    </g>
  </g>
</svg>