<?xml version="1.0" encoding="UTF-8"?>
<svg xmlns="http://www.w3.org/2000/svg" version="1.1" viewBox="0 0 425.2 425.2">
  <defs>
    <style>
      .cls-1 {
        fill: #1d1d1b;
      }
    </style>
  </defs>
  <!-- Generator: Adobe Illustrator 28.7.3, SVG Export Plug-In . SVG Version: 1.2.0 Build 164)  -->
  <g>
    <g id="Calque_1">
      <circle class="cls-1" cx="212" cy="212.3" r="43.1"/>
      <path class="cls-1" d="M278.8,157.4c0,6.5-5.3,11.8-11.8,11.8s-11.8-5.3-11.8-11.8,5.3-11.8,11.8-11.8,11.8,5.3,11.8,11.8Z"/>
      <path class="cls-1" d="M213,34.6c-98.1,0-177.7,79.6-177.7,177.7s79.6,177.7,177.7,177.7,177.7-79.6,177.7-177.7S311.1,34.6,213,34.6ZM318.7,256.4c0,34.1-27.9,62-62,62h-88.2c-34.1,0-62-27.9-62-62v-88.2c0-34.1,27.9-62,62-62h88.2c34.1,0,62,27.9,62,62v88.2Z"/>
    </g>
  </g>
</svg>