<svg width="105" height="34" viewBox="0 0 105 34" fill="none" xmlns="http://www.w3.org/2000/svg">
<mask id="mask0_32_755" style="mask-type:alpha" maskUnits="userSpaceOnUse" x="0" y="0" width="105" height="34">
<g clip-path="url(#clip0_32_755)">
<path d="M53.6271 7.83368L51.8256 5.86759C51.6863 5.7209 51.3636 5.63598 51.1391 5.87531C50.4087 6.54182 49.2731 6.49035 48.6046 5.76208C47.9387 5.0338 47.9877 3.9015 48.7182 3.23498C48.8808 3.10631 49.0046 2.81037 48.7878 2.55302L47.2238 0.846848C46.754 0.334738 46.1166 0.0362212 45.4223 0.00534022C44.728 -0.0255408 44.0647 0.213787 43.5511 0.682149L25.7863 16.8612C25.2727 17.3296 24.9733 17.9678 24.9424 18.6575C24.9114 19.3497 25.1514 20.0111 25.6212 20.5232L27.1852 22.2294C27.2007 22.2448 27.2162 22.2603 27.2317 22.2731L27.9905 23.7992C28.1015 24.0231 28.3699 24.1157 28.597 24.0102C29.2861 23.6911 30.1017 23.8455 30.6256 24.3705C30.5353 24.566 30.4088 24.7488 30.2436 24.9032C30.063 25.0756 30.0527 25.3587 30.223 25.5439L30.9844 26.3752C30.8192 26.7354 30.5456 27.0262 30.1895 27.2141C29.9675 27.3299 29.8797 27.6001 29.9907 27.824L31.178 30.2121C31.8155 31.4937 33.3769 32.0187 34.6623 31.3856L39.8784 28.8096C40.1055 28.6964 40.1984 28.421 40.0874 28.1946C39.9764 27.9681 39.7003 27.8755 39.4706 27.9861L34.2545 30.5621C33.4234 30.9713 32.4142 30.6316 32.0013 29.803L30.9973 27.7828C31.2528 27.5898 31.4696 27.3556 31.6399 27.088L32.0245 27.5075C32.4942 28.0196 33.1317 28.3181 33.826 28.349C34.4455 28.3618 35.1191 28.2049 35.6972 27.6722L52.0528 12.7746C51.9934 13.2765 52.076 13.7989 52.316 14.2852C52.92 15.4973 54.3188 16.0635 55.5732 15.662L56.5669 17.6641C56.9772 18.4928 56.6365 19.499 55.8055 19.9107L41.4347 27.0082C41.2076 27.1214 41.1146 27.3968 41.2256 27.6233C41.3366 27.8497 41.6128 27.9424 41.8425 27.8317L56.2133 20.7342C57.4986 20.0986 58.0251 18.5417 57.3902 17.2601L56.2029 14.872C56.11 14.6944 55.8235 14.5194 55.5396 14.6893C54.6544 15.1267 53.5755 14.7639 53.1368 13.8812C52.698 12.9985 53.0619 11.9228 53.9472 11.4854C54.1382 11.4056 54.3395 11.156 54.2027 10.8497L54.0865 10.6181C54.2104 10.3325 54.2827 10.0237 54.2982 9.70198C54.3292 9.00973 54.0891 8.34836 53.6194 7.83625L53.6271 7.83368ZM28.6331 23.0246L28.1453 22.0441C29.2138 21.4651 30.5818 22.129 30.7702 23.3257C30.1378 22.9422 29.3584 22.8238 28.6306 23.0246H28.6331ZM42.1341 16.9178L43.4014 15.7624L45.2261 17.7542L43.9589 18.9097L42.1341 16.9178ZM53.3871 9.65823C53.3665 10.124 53.16 10.4972 52.8425 10.8188L47.5593 15.6286C47.056 14.9337 46.2456 15.7058 46.8805 16.2462L45.9049 17.134L43.7705 14.8051C43.6879 14.715 43.5743 14.661 43.453 14.6558C43.3317 14.6507 43.213 14.6944 43.1226 14.7742L41.1766 16.5473C41.0863 16.6296 41.0321 16.7429 41.0269 16.8638C41.0217 16.9848 41.0656 17.1031 41.1456 17.1932L43.2801 19.5221L35.0778 26.9928C34.7474 27.2939 34.3164 27.4508 33.8673 27.4303C33.4182 27.4097 33.0053 27.2167 32.7033 26.8873L31.178 25.2223C31.9187 24.2341 31.88 22.8135 31.0799 21.8691C30.1998 20.8294 28.7441 20.6442 27.5853 21.3004L26.2999 19.8979C25.998 19.5685 25.8405 19.1387 25.8612 18.6909C25.8818 18.2432 26.0754 17.8314 26.4058 17.5303L38.2085 6.78115L38.3324 6.91754C38.4743 7.07195 38.6963 7.10798 38.8744 7.02048C38.9131 7.00246 38.9466 6.97673 38.9802 6.94842C39.1686 6.77858 39.1815 6.48778 39.0086 6.29992L38.8847 6.16353L44.1679 1.35381C44.4983 1.05272 44.9293 0.895743 45.3784 0.91633C45.8275 0.936918 46.2404 1.12992 46.5424 1.45932L47.8148 2.84897C46.9837 3.87061 47.0044 5.37606 47.9206 6.37455C48.8369 7.37304 50.3364 7.53002 51.4333 6.79916L52.9458 8.44873C53.2477 8.77812 53.4052 9.20788 53.3845 9.65566L53.3871 9.65823Z" fill="#2F2F2F"/>
<path d="M41.3237 8.82443L40.5004 7.92631C40.33 7.73845 40.0384 7.72558 39.85 7.898C39.6616 8.06785 39.6487 8.35864 39.8216 8.5465L40.6449 9.44463C41.0011 9.85123 41.7134 9.32368 41.3237 8.82701V8.82443Z" fill="#2F2F2F"/>
<path d="M43.6362 11.3464L42.8129 10.4483C42.6425 10.2604 42.3509 10.2476 42.1625 10.42C41.9741 10.5898 41.9612 10.8806 42.1341 11.0685L42.9574 11.9666C43.3136 12.3732 44.0259 11.8456 43.6362 11.349V11.3464Z" fill="#2F2F2F"/>
<path d="M45.1255 12.9727C44.9551 12.7848 44.6635 12.772 44.4751 12.9444C44.2867 13.1142 44.2738 13.405 44.4467 13.5929L45.27 14.491C45.6262 14.8976 46.3385 14.3701 45.9488 13.8734L45.1255 12.9753V12.9727Z" fill="#2F2F2F"/>
<path d="M46.2946 4.31324C46.2997 4.19229 46.2559 4.07392 46.1759 3.98385L44.9215 2.61479C44.7512 2.42693 44.4595 2.41406 44.2711 2.58648L40.7197 5.82127C40.5313 5.99111 40.5184 6.28191 40.6913 6.46977L41.9457 7.83883C42.0283 7.92889 42.1418 7.98294 42.2631 7.98808C42.3406 7.99066 42.418 7.97522 42.4877 7.94176C42.5264 7.92375 42.5625 7.89801 42.5935 7.86971L46.1449 4.63492C46.2352 4.55257 46.2894 4.43934 46.2946 4.31839V4.31324ZM42.3122 6.88151L41.6773 6.18926L44.5499 3.5721L45.1848 4.26435L42.3122 6.88151Z" fill="#2F2F2F"/>
<path d="M48.7543 10.8884L50.6513 9.15904C50.8397 8.98919 50.8526 8.6984 50.6797 8.51054C50.5094 8.32268 50.2177 8.30981 50.0293 8.48223L48.1323 10.2116C47.9439 10.3814 47.931 10.6722 48.1039 10.8601C48.2459 11.0145 48.4678 11.0505 48.6459 10.963C48.6846 10.945 48.7182 10.9193 48.7517 10.891L48.7543 10.8884Z" fill="#2F2F2F"/>
<path d="M51.1416 9.69694L49.2446 11.4263C49.0562 11.5961 49.0433 11.8869 49.2162 12.0748C49.3582 12.2292 49.5801 12.2652 49.7582 12.1777C49.7969 12.1597 49.8305 12.134 49.864 12.1057L51.7611 10.3763C51.9495 10.2065 51.9624 9.91568 51.7894 9.72782C51.6191 9.53996 51.3275 9.5271 51.139 9.69952L51.1416 9.69694Z" fill="#2F2F2F"/>
<path d="M36.2444 22.3761L33.568 24.8132C33.3796 24.983 33.3667 25.2738 33.5396 25.4617C33.6815 25.6161 33.9035 25.6521 34.0816 25.5646C34.1203 25.5466 34.1539 25.5209 34.1874 25.4926L36.8639 23.0555C37.0523 22.8857 37.0652 22.5949 36.8923 22.407C36.7219 22.2192 36.4303 22.2063 36.2419 22.3787L36.2444 22.3761Z" fill="#2F2F2F"/>
<path d="M54.5718 19.4193C54.7989 19.3061 54.8918 19.0307 54.7808 18.8042L53.9911 17.2139C53.8775 16.9874 53.6039 16.8948 53.3742 17.0054L48.8266 19.252C48.5994 19.3652 48.5065 19.638 48.6175 19.8671L49.4073 21.4574C49.5208 21.6839 49.7944 21.7765 50.0241 21.6659L54.5718 19.4193ZM49.6473 19.8722L53.3716 18.0322L53.7536 18.8017L50.0293 20.6417L49.6473 19.8722Z" fill="#2F2F2F"/>
<path d="M47.5722 21.7842C47.7994 21.671 47.8923 21.3982 47.7813 21.1692C47.6703 20.9401 47.3941 20.8501 47.1644 20.9607L42.7871 23.1224C42.56 23.2356 42.4671 23.5084 42.5781 23.7374C42.689 23.9665 42.9652 24.0565 43.1949 23.9459L47.5722 21.7842Z" fill="#2F2F2F"/>
<path d="M38.002 13.4771C37.8627 13.6032 37.5142 13.9455 37.0548 14.4035L33.5963 13.3433C33.4415 13.297 33.2711 13.333 33.1524 13.4436L32.0813 14.419C31.9136 14.5785 31.8439 14.9465 32.1742 15.1601L34.8636 16.6012C33.728 17.7464 32.6465 18.8427 32.3136 19.1798L30.7754 19.4989C30.4553 19.5607 30.2488 20.0547 30.6179 20.3301L32.5433 21.5937C32.7343 21.658 32.8659 21.7455 33.1214 21.5345L33.7409 20.9091C33.9396 20.747 35.2533 19.6739 36.6367 18.5364L37.8343 21.3389C37.9659 21.5216 38.1621 21.7738 38.5673 21.4984L39.6384 20.5231C39.7597 20.4125 39.8113 20.2478 39.7777 20.0908L39.0318 16.5626C39.53 16.1483 39.9042 15.8318 40.0436 15.7057C40.8411 14.98 40.6217 13.6392 40.5933 13.49C40.5624 13.3175 40.4333 13.1786 40.2655 13.1323C40.1184 13.0911 38.7996 12.7514 38.002 13.4771ZM33.1808 14.6609L33.5783 14.298L36.3218 15.1369C36.0715 15.3866 35.8082 15.6516 35.5398 15.9218L33.1808 14.6583V14.6609ZM38.8254 20.0264L38.4279 20.3893L37.3775 17.9343C37.6717 17.6924 37.9607 17.453 38.2343 17.2291L38.8254 20.029V20.0264ZM39.4241 15.0289C39.2745 15.1653 38.8254 15.5435 38.2317 16.0351C37.9866 16.2384 37.7052 16.4725 37.3904 16.7325C37.3697 16.7479 37.3516 16.7633 37.331 16.7814C37.3207 16.7891 37.3103 16.7994 37.3 16.8071C35.4804 18.3074 33.1782 20.1886 33.1421 20.2169C33.1292 20.2272 33.1189 20.2375 33.106 20.2478L32.7343 20.6235L32.0478 20.1731L32.6388 20.0496C32.7266 20.0316 32.8092 19.9878 32.8737 19.9209C32.9072 19.8875 34.9875 17.7747 36.6496 16.1046C36.7012 16.0531 36.7529 16.0016 36.8019 15.9527C36.8045 15.9501 36.8071 15.9476 36.8096 15.9424C37.0677 15.6825 37.3 15.4509 37.5065 15.2425C38.0511 14.6995 38.4692 14.2877 38.6189 14.1488C38.8821 13.9094 39.3751 13.9094 39.7184 13.9532C39.7313 14.2954 39.6874 14.7844 39.4216 15.0237L39.4241 15.0289Z" fill="#2F2F2F"/>
<path d="M81.6744 22.1598C81.4395 22.2396 81.1969 22.3193 80.9491 22.394C80.6549 22.484 80.3426 22.3168 80.2523 22.0234C80.162 21.73 80.322 21.4264 80.6239 21.3286C80.8614 21.2565 81.0911 21.1768 81.3182 21.1047C81.7802 20.9451 82.2267 20.7702 82.65 20.5823C82.9287 20.4613 83.2617 20.5823 83.3882 20.8628C83.5146 21.1433 83.3882 21.4727 83.1068 21.5988C82.6526 21.7995 82.1622 21.9951 81.6744 22.1598ZM78.8069 22.9215C78.7837 22.9292 78.7579 22.937 78.7321 22.9421C78.0172 23.0837 77.261 23.202 76.4841 23.2921C76.177 23.3281 75.9008 23.1094 75.8647 22.8032C75.8285 22.4995 76.0479 22.2216 76.355 22.1855C77.1009 22.098 77.8288 21.9848 78.5153 21.8484C78.8173 21.7892 79.1115 21.9848 79.1709 22.2859C79.2251 22.5613 79.065 22.8315 78.8069 22.919V22.9215ZM85.0193 20.554C84.7845 20.6363 84.516 20.5514 84.3715 20.3352C84.2012 20.0779 84.2734 19.7331 84.5289 19.5632C85.1458 19.1566 85.6929 18.7088 86.1524 18.2302C86.3666 18.0089 86.7202 18.0012 86.9421 18.2147C87.1641 18.4283 87.1718 18.7809 86.9576 19.0022C86.4414 19.5375 85.8297 20.0393 85.1432 20.4922C85.1019 20.518 85.0606 20.5385 85.0167 20.554H85.0193ZM74.378 23.4465C74.329 23.4645 74.2774 23.4722 74.2232 23.4774C73.4927 23.5134 72.7314 23.5314 71.9597 23.5263C71.6525 23.5263 71.4022 23.2741 71.4048 22.9679C71.4048 22.6616 71.6577 22.412 71.9648 22.4146C72.7159 22.4171 73.4566 22.4017 74.1638 22.3657C74.4709 22.3502 74.7342 22.587 74.7497 22.8932C74.7626 23.1454 74.6052 23.3693 74.3754 23.4465H74.378ZM88.0313 17.3398C87.8945 17.3861 87.7422 17.381 87.6029 17.314C87.3267 17.1777 87.2131 16.8457 87.3473 16.5703C87.6622 15.9321 87.8274 15.2913 87.8403 14.666C87.8455 14.3598 88.1036 14.1153 88.4107 14.1204C88.7178 14.1256 88.963 14.3804 88.9579 14.6892C88.9424 15.4766 88.7359 16.277 88.3513 17.0593C88.2842 17.1957 88.1681 17.2935 88.0339 17.3398H88.0313ZM69.9181 23.4336C69.851 23.4568 69.7813 23.4671 69.7065 23.4619C68.9735 23.4233 68.2173 23.3693 67.4585 23.2972C67.1513 23.2689 66.9268 22.9987 66.9552 22.6925C66.9836 22.3863 67.2546 22.1624 67.5617 22.1907C68.305 22.2602 69.0483 22.3142 69.7658 22.3528C70.073 22.3682 70.3104 22.6307 70.2924 22.937C70.2795 23.1712 70.1246 23.3616 69.9181 23.4336ZM65.4737 23.0219C65.3937 23.0502 65.3085 23.0579 65.2208 23.0476C64.4981 22.955 63.7496 22.8443 62.996 22.7234C62.6914 22.6745 62.485 22.3888 62.534 22.0852C62.583 21.7815 62.8695 21.5756 63.1741 21.6245C63.9174 21.7455 64.653 21.8536 65.3653 21.9436C65.6699 21.9822 65.8867 22.2627 65.848 22.5664C65.8196 22.7826 65.6699 22.955 65.4763 23.0219H65.4737ZM88.0029 13.0885C87.7655 13.1708 87.497 13.0859 87.3525 12.8672C87.3112 12.8028 87.2673 12.7411 87.2183 12.6819C87.0273 12.44 87.0712 12.09 87.3138 11.8996C87.5564 11.7117 87.9074 11.7529 88.0958 11.9948C88.1629 12.0797 88.2249 12.1672 88.2842 12.2573C88.452 12.5146 88.3797 12.8595 88.1216 13.0267C88.0829 13.0525 88.0416 13.0731 87.9977 13.0859L88.0029 13.0885ZM61.068 22.3116C60.9777 22.3425 60.8796 22.3502 60.7815 22.3322C60.0589 22.1933 59.3207 22.0414 58.5826 21.8819C58.2806 21.815 58.0922 21.519 58.1567 21.2205C58.2238 20.9194 58.5206 20.729 58.82 20.7959C59.5478 20.9554 60.2782 21.1047 60.9932 21.2411C61.2951 21.2977 61.4939 21.5911 61.4371 21.8922C61.3984 22.0955 61.2538 22.2499 61.0706 22.3142L61.068 22.3116Z" fill="#2F2F2F"/>
<path d="M13.8674 34.0001C13.1938 34.0001 12.5202 33.9435 11.8646 33.8303C11.56 33.7788 11.3587 33.4906 11.4104 33.1869C11.462 32.8833 11.7536 32.68 12.0556 32.734C12.7447 32.8524 13.4596 32.9013 14.1668 32.8833C14.4688 32.8652 14.732 33.1174 14.7398 33.4237C14.7475 33.7299 14.5049 33.9872 14.1978 33.995C14.0868 33.9975 13.9784 34.0001 13.8674 34.0001ZM16.3942 33.7325C16.1361 33.7325 15.9038 33.5523 15.8496 33.2899C15.7877 32.9888 15.9812 32.6954 16.2806 32.6311C16.9568 32.4921 17.6485 32.2914 18.3402 32.034C18.6293 31.9285 18.9493 32.0752 19.0577 32.3634C19.1636 32.6516 19.0164 32.9707 18.7274 33.0788C17.9841 33.3542 17.2382 33.5678 16.5077 33.7196C16.469 33.7273 16.4303 33.7299 16.3942 33.7299V33.7325ZM9.81532 33.241C9.74822 33.241 9.67853 33.2281 9.61401 33.2024C8.90682 32.927 8.20738 32.5796 7.53117 32.1627C7.26791 32.0006 7.1879 31.6583 7.34792 31.3984C7.51052 31.1359 7.85379 31.0561 8.11447 31.2157C8.73132 31.5965 9.3714 31.9156 10.0166 32.1653C10.3031 32.2759 10.4451 32.6002 10.3341 32.8858C10.2489 33.1071 10.0373 33.241 9.81274 33.241H9.81532ZM20.5728 32.2116C20.3714 32.2116 20.1753 32.1009 20.0772 31.9105C19.9353 31.6377 20.0437 31.3032 20.3172 31.1616C20.9393 30.8425 21.5716 30.4745 22.1988 30.0679C22.4569 29.9007 22.8027 29.9727 22.9705 30.2301C23.1382 30.4874 23.066 30.8322 22.8079 30.9995C22.1523 31.4241 21.4864 31.8127 20.8309 32.1498C20.7483 32.191 20.6605 32.2116 20.5753 32.2116H20.5728ZM6.02131 30.9352C5.89484 30.9352 5.7658 30.8914 5.65998 30.8039C5.09991 30.3278 4.54242 29.7926 4.00558 29.2136C3.79652 28.9871 3.81201 28.6345 4.03655 28.4261C4.26368 28.2176 4.61469 28.2331 4.82375 28.457C5.32961 29.0051 5.85355 29.5069 6.38006 29.9547C6.61493 30.1529 6.64332 30.5054 6.44459 30.7396C6.33361 30.8683 6.17617 30.9352 6.01873 30.9352H6.02131ZM24.3203 29.7977C24.1525 29.7977 23.9899 29.7231 23.879 29.5816C23.6906 29.3397 23.7344 28.9897 23.977 28.8018C24.5423 28.3643 25.1075 27.8934 25.6598 27.3967C25.8895 27.1909 26.2405 27.2089 26.447 27.4379C26.6535 27.6669 26.6354 28.0169 26.4057 28.2228C25.8328 28.7349 25.2469 29.2264 24.661 29.6793C24.5603 29.7591 24.439 29.7951 24.3203 29.7951V29.7977ZM2.99127 27.6798C2.82092 27.6798 2.65058 27.6026 2.54218 27.4533C2.07761 26.8254 1.66981 26.1589 1.32913 25.4744C1.19234 25.199 1.3059 24.8645 1.58206 24.7281C1.85822 24.5917 2.19375 24.7049 2.33054 24.9803C2.64284 25.6082 3.01707 26.2181 3.44035 26.7945C3.6236 27.0416 3.5694 27.389 3.32163 27.5717C3.22097 27.6438 3.10483 27.6798 2.99127 27.6798ZM27.6446 26.8229C27.5052 26.8229 27.3633 26.7714 27.2549 26.6659C27.0329 26.4523 27.0277 26.0997 27.242 25.8784C28.1634 24.9314 28.695 24.2649 28.7002 24.2572C28.8912 24.0153 29.2422 23.9767 29.4848 24.1671C29.7274 24.3575 29.7661 24.7075 29.5751 24.9494C29.5519 24.9777 29.0073 25.6622 28.0421 26.653C27.9337 26.7662 27.7865 26.8229 27.642 26.8229H27.6446ZM1.02199 23.7116C0.779383 23.7116 0.557421 23.552 0.485154 23.3101C0.270934 22.5716 0.121239 21.8047 0.0412291 21.0327C0.0102576 20.7264 0.23222 20.4536 0.539354 20.4228C0.841326 20.3893 1.12007 20.6132 1.15104 20.9194C1.22331 21.6271 1.3601 22.3271 1.55625 23.0039C1.64142 23.2998 1.47108 23.6087 1.17427 23.6936C1.12265 23.709 1.07103 23.7167 1.01941 23.7167L1.02199 23.7116ZM0.557421 19.311C0.557421 19.311 0.531611 19.311 0.518707 19.311C0.211572 19.2905 -0.0207139 19.0254 -6.62518e-05 18.7192C0.0515529 17.9574 0.167696 17.188 0.343201 16.4314C0.412887 16.1329 0.712278 15.945 1.01425 16.0145C1.31364 16.084 1.50205 16.3825 1.43237 16.6836C1.26977 17.381 1.16395 18.0912 1.11491 18.7938C1.09426 19.0872 0.849069 19.3136 0.560002 19.3136L0.557421 19.311ZM1.55883 14.9928C1.48915 14.9928 1.41946 14.98 1.35236 14.9517C1.06587 14.8384 0.926498 14.5142 1.04264 14.2285C1.32655 13.5234 1.66723 12.826 2.05696 12.1595C2.21182 11.8945 2.5525 11.8044 2.82092 11.9588C3.08676 12.1132 3.17709 12.4529 3.02224 12.7205C2.6609 13.3433 2.34344 13.9892 2.07761 14.6454C1.98985 14.8616 1.7808 14.9954 1.55883 14.9954V14.9928ZM3.78878 11.1559C3.66748 11.1559 3.54617 11.1173 3.44551 11.0375C3.2029 10.8471 3.16161 10.4971 3.35002 10.2552C3.81975 9.65815 4.33853 9.08171 4.89085 8.54643C5.11281 8.33284 5.46382 8.33541 5.68062 8.55673C5.89484 8.77804 5.89226 9.12803 5.6703 9.34419C5.15411 9.84601 4.66889 10.3839 4.23013 10.9423C4.11914 11.0813 3.95654 11.1559 3.79136 11.1559H3.78878ZM6.97368 8.05491C6.80334 8.05491 6.63816 7.97771 6.52718 7.8336C6.34135 7.58655 6.39039 7.23914 6.63816 7.05385C7.24469 6.59836 7.88993 6.17632 8.55839 5.79288C8.82681 5.64105 9.1675 5.73111 9.31978 5.99875C9.47205 6.26639 9.38172 6.60608 9.1133 6.75791C8.48613 7.11561 7.8796 7.51449 7.30921 7.94168C7.20855 8.01631 7.08983 8.05234 6.97368 8.05234V8.05491ZM32.6491 7.22884C32.5742 7.22884 32.4968 7.2134 32.4245 7.18252L32.2722 7.11561C31.9909 6.99209 31.8619 6.66527 31.9858 6.38219C32.1096 6.10169 32.4374 5.97302 32.7213 6.09654L32.8762 6.16345C33.1575 6.28697 33.2866 6.61637 33.1627 6.89687C33.0698 7.10532 32.8659 7.22884 32.6516 7.22884H32.6491ZM30.4269 6.323C30.3623 6.323 30.2952 6.31271 30.2307 6.28697C29.5364 6.02706 28.837 5.78773 28.1505 5.57671C27.8562 5.48664 27.691 5.17526 27.7814 4.88189C27.8717 4.58852 28.184 4.42382 28.4782 4.51389C29.1854 4.73263 29.9081 4.97968 30.6204 5.24474C30.9095 5.35282 31.054 5.6745 30.9456 5.96015C30.8605 6.18404 30.6488 6.32043 30.4243 6.32043L30.4269 6.323ZM10.8348 5.84177C10.618 5.84177 10.4115 5.71567 10.3212 5.50208C10.1999 5.219 10.3315 4.89218 10.6154 4.77123C11.3097 4.47529 12.0349 4.21537 12.7705 3.99406C13.0673 3.90656 13.377 4.07383 13.4648 4.3672C13.5525 4.66057 13.3848 4.97196 13.0906 5.05945C12.3937 5.2679 11.7097 5.51495 11.0516 5.79288C10.9793 5.82376 10.9071 5.83663 10.8322 5.83663L10.8348 5.84177ZM26.1657 5.01313C26.1218 5.01313 26.0779 5.00798 26.0341 4.99769C25.3166 4.82527 24.5939 4.67859 23.8867 4.56021C23.5822 4.50874 23.3783 4.22309 23.4299 3.91943C23.4815 3.61576 23.7706 3.41247 24.0725 3.46393C24.8055 3.58746 25.554 3.73929 26.2973 3.91686C26.5967 3.98891 26.78 4.29 26.7077 4.58852C26.6458 4.84329 26.4186 5.0157 26.1657 5.0157V5.01313ZM15.0985 4.56536C14.8353 4.56536 14.6004 4.3775 14.5514 4.10986C14.4946 3.80877 14.6933 3.51798 14.9979 3.46136C15.736 3.32497 16.4974 3.21946 17.2614 3.15512C17.5711 3.13196 17.8395 3.35585 17.8653 3.66209C17.8911 3.96832 17.664 4.23853 17.3569 4.26427C16.6291 4.32603 15.9012 4.42639 15.2018 4.55764C15.1682 4.56278 15.1321 4.56793 15.0985 4.56793V4.56536ZM21.7652 4.28228C21.7497 4.28228 21.7316 4.28228 21.7135 4.28228C20.9805 4.21794 20.2476 4.18192 19.5326 4.17934C19.2255 4.17934 18.9751 3.92715 18.9777 3.62091C18.9777 3.31468 19.2281 3.06763 19.5352 3.06763H19.5378C20.2837 3.0702 21.0502 3.1088 21.8142 3.17571C22.1213 3.20402 22.3485 3.47423 22.3201 3.78046C22.2943 4.06869 22.0516 4.28743 21.7652 4.28743V4.28228Z" fill="#2F2F2F"/>
<path d="M57.9399 4.32097V5.41725H59.713V6.43632H57.9399V7.62524H59.9453V8.68292H56.6158V3.2633H59.9453V4.32097H57.9399ZM59.1478 2.17474L57.2817 2.95449V2.0435L59.1478 1.14795V2.17474Z" fill="#2F2F2F"/>
<path d="M65.9073 3.26318L63.9794 8.6828H62.3224L60.3944 3.26318H61.8036L63.1509 7.35492L64.5059 3.26318H65.9073Z" fill="#2F2F2F"/>
<path d="M69.8406 7.72549H67.812L67.4868 8.6828H66.1008L68.0675 3.26318H69.6006L71.5673 8.6828H70.1658L69.8406 7.72549ZM69.5 6.70642L68.8263 4.72231L68.1604 6.70642H69.5Z" fill="#2F2F2F"/>
<path d="M73.0617 8.54402C72.7468 8.41535 72.4965 8.22492 72.3081 7.97273C72.1196 7.72053 72.019 7.41687 72.0087 7.06174H73.4179C73.4385 7.26246 73.5082 7.41687 73.6269 7.52238C73.7456 7.62789 73.9005 7.67936 74.0915 7.67936C74.2825 7.67936 74.4425 7.63561 74.5561 7.54554C74.6696 7.45547 74.7264 7.33194 74.7264 7.16982C74.7264 7.036 74.68 6.92534 74.5922 6.83785C74.5019 6.75035 74.3909 6.6783 74.2593 6.62168C74.1276 6.56507 73.9392 6.50073 73.6966 6.42867C73.3456 6.32059 73.0591 6.21251 72.8372 6.10442C72.6152 5.99634 72.4242 5.83679 72.2642 5.62577C72.1042 5.41475 72.0242 5.13939 72.0242 4.7997C72.0242 4.29531 72.2074 3.899 72.5739 3.61335C72.9404 3.32771 73.4179 3.18359 74.0063 3.18359C74.5948 3.18359 75.0878 3.32771 75.4542 3.61335C75.8207 3.899 76.0169 4.29788 76.0427 4.80742H74.6103C74.5999 4.63243 74.5354 4.49346 74.4167 4.3931C74.298 4.29274 74.1457 4.24384 73.9599 4.24384C73.7999 4.24384 73.6708 4.28759 73.5727 4.37251C73.4747 4.45744 73.4256 4.58096 73.4256 4.73794C73.4256 4.91293 73.5082 5.04932 73.6734 5.14711C73.8386 5.2449 74.0967 5.35041 74.4477 5.46364C74.7987 5.58202 75.0826 5.69525 75.302 5.80333C75.5214 5.91142 75.7098 6.0684 75.8724 6.27427C76.0324 6.48014 76.1124 6.7452 76.1124 7.06946C76.1124 7.39371 76.0324 7.65877 75.8749 7.91096C75.7175 8.16316 75.4878 8.36389 75.1884 8.51314C74.889 8.6624 74.5354 8.73703 74.1276 8.73703C73.7198 8.73703 73.374 8.6727 73.0591 8.54402H73.0617Z" fill="#2F2F2F"/>
<path d="M78.2494 3.26318V8.6828H76.9254V3.26318H78.2494Z" fill="#2F2F2F"/>
<path d="M80.3761 8.38177C79.9502 8.14501 79.6121 7.81304 79.3618 7.38843C79.1114 6.96381 78.9875 6.48773 78.9875 5.95761C78.9875 5.42748 79.1114 4.9514 79.3618 4.52936C79.6121 4.10732 79.9502 3.77792 80.3761 3.54117C80.802 3.30441 81.2691 3.18604 81.7801 3.18604C82.2912 3.18604 82.7609 3.30441 83.1868 3.54117C83.6126 3.77792 83.9481 4.10732 84.1933 4.52936C84.4385 4.9514 84.5598 5.42748 84.5598 5.95761C84.5598 6.48773 84.436 6.96639 84.1882 7.38843C83.9404 7.81304 83.6049 8.14501 83.1816 8.38177C82.7583 8.61852 82.2912 8.7369 81.7801 8.7369C81.2691 8.7369 80.802 8.61852 80.3761 8.38177ZM82.8228 7.1002C83.0835 6.81198 83.2152 6.43112 83.2152 5.95761C83.2152 5.4841 83.0835 5.09808 82.8228 4.80986C82.5622 4.52421 82.2163 4.3801 81.7801 4.3801C81.344 4.3801 80.9904 4.52164 80.7323 4.80472C80.4716 5.08779 80.3426 5.47123 80.3426 5.95503C80.3426 6.43884 80.4716 6.81455 80.7323 7.10278C80.9929 7.38843 81.3414 7.53254 81.7801 7.53254C82.2189 7.53254 82.5596 7.38843 82.8228 7.1002Z" fill="#2F2F2F"/>
<path d="M90.1579 8.6828H88.8339L86.6194 5.33993V8.6828H85.2954V3.26318H86.6194L88.8339 6.62149V3.26318H90.1579V8.6828Z" fill="#2F2F2F"/>
<path d="M53.1935 26.9205C53.622 27.147 53.9523 27.4661 54.1872 27.8752C54.4221 28.2844 54.5408 28.7579 54.5408 29.2906C54.5408 29.8233 54.4221 30.2917 54.1872 30.7034C53.9523 31.1152 53.6194 31.4343 53.1884 31.6607C52.7574 31.8872 52.2567 32.0004 51.6888 32.0004H49.6525V26.5808H51.6888C52.2618 26.5808 52.7625 26.694 53.191 26.9205H53.1935ZM52.7754 30.4487C53.0542 30.1759 53.1935 29.7899 53.1935 29.2906C53.1935 28.7914 53.0542 28.4028 52.7754 28.1249C52.4967 27.8469 52.107 27.708 51.6062 27.708H50.9791V30.8578H51.6062C52.107 30.8578 52.4967 30.7214 52.7754 30.4487Z" fill="#2F2F2F"/>
<path d="M56.6081 27.6386V28.7349H58.3812V29.754H56.6081V30.9429H58.6135V32.0005H55.2841V26.5809H58.6135V27.6386H56.6081ZM57.816 25.4924L55.9499 26.2721V25.3611L57.816 24.4656V25.4924Z" fill="#2F2F2F"/>
<path d="M59.5968 27.8521C59.8291 27.4326 60.1517 27.1058 60.5699 26.8716C60.9854 26.6374 61.4577 26.519 61.9842 26.519C62.6295 26.519 63.1818 26.6889 63.6412 27.0286C64.1006 27.3683 64.4077 27.8315 64.5626 28.4182H63.1069C62.9985 28.1918 62.8437 28.0193 62.645 27.901C62.4462 27.7826 62.2191 27.7234 61.9687 27.7234C61.561 27.7234 61.2306 27.8649 60.9777 28.148C60.7247 28.4311 60.5983 28.8094 60.5983 29.2829C60.5983 29.7564 60.7247 30.1347 60.9777 30.4178C61.2306 30.7008 61.561 30.8424 61.9687 30.8424C62.2217 30.8424 62.4462 30.7832 62.645 30.6648C62.8437 30.5464 62.996 30.374 63.1069 30.1476H64.5626C64.4077 30.7343 64.1006 31.1975 63.6412 31.5321C63.1818 31.8692 62.6295 32.039 61.9842 32.039C61.4577 32.039 60.9854 31.9206 60.5699 31.6865C60.1543 31.4523 59.8317 31.128 59.5968 30.7111C59.3646 30.2942 59.2484 29.8182 59.2484 29.2829C59.2484 28.7476 59.3646 28.269 59.5968 27.8495V27.8521Z" fill="#2F2F2F"/>
<path d="M66.5371 31.6994C66.1113 31.4626 65.7732 31.1307 65.5228 30.7061C65.2724 30.2814 65.1486 29.8054 65.1486 29.2752C65.1486 28.7451 65.2724 28.269 65.5228 27.847C65.7732 27.4249 66.1113 27.0955 66.5371 26.8588C66.963 26.622 67.4301 26.5037 67.9412 26.5037C68.4522 26.5037 68.9219 26.622 69.3478 26.8588C69.7736 27.0955 70.1092 27.4249 70.3544 27.847C70.5995 28.269 70.7209 28.7451 70.7209 29.2752C70.7209 29.8054 70.597 30.284 70.3492 30.7061C70.1014 31.1307 69.7659 31.4626 69.3426 31.6994C68.9193 31.9361 68.4522 32.0545 67.9412 32.0545C67.4301 32.0545 66.963 31.9361 66.5371 31.6994ZM68.9839 30.4178C69.2445 30.1296 69.3762 29.7487 69.3762 29.2752C69.3762 28.8017 69.2445 28.4157 68.9839 28.1275C68.7232 27.8418 68.3773 27.6977 67.9412 27.6977C67.505 27.6977 67.1514 27.8393 66.8933 28.1223C66.6326 28.4054 66.5036 28.7889 66.5036 29.2727C66.5036 29.7565 66.6326 30.1322 66.8933 30.4204C67.154 30.7061 67.5024 30.8502 67.9412 30.8502C68.3799 30.8502 68.7206 30.7061 68.9839 30.4178Z" fill="#2F2F2F"/>
<path d="M72.7598 26.5808V29.8233C72.7598 30.1476 72.8398 30.3972 72.9999 30.5722C73.1599 30.7472 73.3947 30.8347 73.7045 30.8347C74.0142 30.8347 74.2516 30.7472 74.4168 30.5722C74.582 30.3972 74.6646 30.1476 74.6646 29.8233V26.5808H75.9886V29.8156C75.9886 30.2994 75.8854 30.7086 75.6789 31.0431C75.4724 31.3777 75.1937 31.6299 74.8452 31.7997C74.4968 31.9695 74.1097 32.0545 73.6812 32.0545C73.2528 32.0545 72.8682 31.9695 72.5301 31.8048C72.192 31.6376 71.9236 31.3854 71.73 31.0483C71.5339 30.7111 71.4358 30.302 71.4358 29.8156V26.5808H72.7598Z" fill="#2F2F2F"/>
<path d="M82.0203 26.5808L80.0923 32.0004H78.4353L76.5073 26.5808H77.9165L79.2638 30.6725L80.6188 26.5808H82.0203Z" fill="#2F2F2F"/>
<path d="M83.8941 27.6385V28.7348H85.6672V29.7538H83.8941V30.9428H85.8995V32.0004H82.5701V26.5808H85.8995V27.6385H83.8941Z" fill="#2F2F2F"/>
<path d="M89.5283 32.0004L88.3978 29.9546H88.0804V32.0004H86.7563V26.5808H88.9785C89.407 26.5808 89.7709 26.6554 90.0729 26.8047C90.3748 26.954 90.5994 27.1598 90.7491 27.4197C90.8988 27.6797 90.9736 27.9679 90.9736 28.2896C90.9736 28.6498 90.8704 28.9715 90.6665 29.2546C90.4626 29.5377 90.1606 29.7384 89.7632 29.8568L91.0175 32.003H89.5231L89.5283 32.0004ZM88.0804 29.0204H88.9011C89.1437 29.0204 89.327 28.9612 89.4483 28.8428C89.5696 28.7245 89.6315 28.5572 89.6315 28.341C89.6315 28.1249 89.5696 27.973 89.4483 27.8547C89.327 27.7363 89.1437 27.6771 88.9011 27.6771H88.0804V29.0204Z" fill="#2F2F2F"/>
<path d="M95.7149 26.5808V27.6385H94.2747V32.0004H92.9507V27.6385H91.5105V26.5808H95.7149Z" fill="#2F2F2F"/>
<path d="M97.7048 27.6385V28.7348H99.4779V29.7538H97.7048V30.9428H99.7102V32.0004H96.3807V26.5808H99.7102V27.6385H97.7048Z" fill="#2F2F2F"/>
<path d="M101.468 31.8616C101.153 31.733 100.903 31.5425 100.714 31.2904C100.526 31.0382 100.425 30.7345 100.415 30.3794H101.824C101.845 30.5801 101.914 30.7345 102.033 30.84C102.152 30.9455 102.307 30.997 102.498 30.997C102.689 30.997 102.849 30.9532 102.962 30.8632C103.076 30.7731 103.133 30.6496 103.133 30.4874C103.133 30.3536 103.086 30.243 102.998 30.1555C102.908 30.068 102.797 29.9959 102.665 29.9393C102.534 29.8827 102.345 29.8184 102.103 29.7463C101.752 29.6382 101.465 29.5301 101.243 29.422C101.021 29.314 100.83 29.1544 100.67 28.9434C100.51 28.7324 100.43 28.457 100.43 28.1173C100.43 27.6129 100.614 27.2166 100.98 26.931C101.347 26.6453 101.824 26.5012 102.412 26.5012C103.001 26.5012 103.494 26.6453 103.86 26.931C104.227 27.2166 104.423 27.6155 104.449 28.125H103.016C103.006 27.9501 102.942 27.8111 102.823 27.7107C102.704 27.6104 102.552 27.5615 102.366 27.5615C102.206 27.5615 102.077 27.6052 101.979 27.6901C101.881 27.7751 101.832 27.8986 101.832 28.0556C101.832 28.2306 101.914 28.3669 102.08 28.4647C102.245 28.5625 102.503 28.668 102.854 28.7813C103.205 28.8996 103.489 29.0129 103.708 29.121C103.927 29.229 104.116 29.386 104.278 29.5919C104.439 29.7978 104.519 30.0628 104.519 30.3871C104.519 30.7113 104.439 30.9764 104.281 31.2286C104.124 31.4808 103.894 31.6815 103.595 31.8308C103.295 31.98 102.942 32.0547 102.534 32.0547C102.126 32.0547 101.78 31.9903 101.465 31.8616H101.468Z" fill="#2F2F2F"/>
<path d="M75.4336 19.3368L74.6103 18.5262C73.9083 19.1541 73.054 19.4655 72.0423 19.4655C71.4848 19.4655 70.997 19.3702 70.5737 19.1798C70.1504 18.9894 69.8226 18.7192 69.5929 18.3692C69.3606 18.0192 69.2471 17.6152 69.2471 17.152C69.2471 16.6553 69.389 16.2075 69.6704 15.8112C69.9517 15.4149 70.3672 15.0932 70.917 14.8487C70.7208 14.612 70.5814 14.383 70.4937 14.1616C70.4059 13.9429 70.3646 13.7061 70.3646 13.4539C70.3646 13.1091 70.455 12.7977 70.6356 12.5198C70.8163 12.2419 71.0744 12.0257 71.4099 11.8661C71.7454 11.7066 72.1377 11.6294 72.5868 11.6294C73.0359 11.6294 73.4334 11.7169 73.7586 11.8893C74.0838 12.0617 74.3264 12.2933 74.4838 12.5816C74.6439 12.8698 74.711 13.1915 74.6903 13.544H73.2166C73.2243 13.3073 73.165 13.1246 73.0437 12.9985C72.9198 12.8724 72.7546 12.808 72.5455 12.808C72.3365 12.808 72.1739 12.8672 72.0423 12.9856C71.908 13.104 71.8409 13.2584 71.8409 13.4462C71.8409 13.6341 71.8951 13.8039 72.0035 13.9815C72.1119 14.1591 72.29 14.3752 72.5352 14.6351L74.4425 16.5163C74.458 16.5009 74.4684 16.488 74.4761 16.4726C74.4838 16.4571 74.4916 16.4443 74.4967 16.4288L75.1136 15.402H76.6957L75.9369 16.7325C75.7924 17.013 75.6375 17.2806 75.4698 17.5328L77.3022 19.3368H75.4388H75.4336ZM73.6554 17.5869L71.7919 15.7494C71.0899 16.0582 70.7414 16.4983 70.7414 17.067C70.7414 17.3913 70.8653 17.6641 71.1105 17.8828C71.3557 18.1015 71.6809 18.2122 72.0861 18.2122C72.6797 18.2122 73.2037 18.0038 73.6579 17.5843L73.6554 17.5869Z" fill="#2F2F2F"/>
</g>
</mask>
<g mask="url(#mask0_32_755)">
<rect x="-6" y="-35" width="133" height="74" fill="#2F2F2F"/>
</g>
<defs>
<clipPath id="clip0_32_755">
<rect width="104.519" height="34" fill="white"/>
</clipPath>
</defs>
</svg>
