<svg width="81" height="14" viewBox="0 0 81 14" fill="none" xmlns="http://www.w3.org/2000/svg">
<circle cx="7" cy="7" r="6.5" fill="black" stroke="black"/>
<path d="M29.5 7C29.5 10.6254 26.7795 13.5 23.5 13.5C20.2205 13.5 17.5 10.6254 17.5 7C17.5 3.37461 20.2205 0.5 23.5 0.5C26.7795 0.5 29.5 3.37461 29.5 7Z" fill="black" stroke="black"/>
<circle cx="41" cy="7" r="6.5" fill="black" stroke="black"/>
<path d="M63.5 7C63.5 10.6254 60.7795 13.5 57.5 13.5C54.2205 13.5 51.5 10.6254 51.5 7C51.5 3.37461 54.2205 0.5 57.5 0.5C60.7795 0.5 63.5 3.37461 63.5 7Z" fill="black" stroke="black"/>
<circle cx="74" cy="7" r="6.5" fill="black" stroke="black"/>
</svg>
