<?xml version="1.0" encoding="UTF-8"?>
<svg xmlns="http://www.w3.org/2000/svg" version="1.1" viewBox="0 0 425.2 425.2">
  <defs>
    <style>
      .cls-1 {
        fill: #1d1d1b;
      }
    </style>
  </defs>
  <!-- Generator: Adobe Illustrator 28.7.3, SVG Export Plug-In . SVG Version: 1.2.0 Build 164)  -->
  <g>
    <g id="Calque_1">
      <path class="cls-1" d="M212.7,34.6c-98.1,0-177.7,79.6-177.7,177.7s79.6,177.7,177.7,177.7,177.7-79.6,177.7-177.7S310.8,34.6,212.7,34.6ZM318,194.1c-.7.1-1.4.2-2.1.3-1.3.2-2.6.3-3.9.4-1.6.1-3.2.2-4.8.2-18.6,0-35.4-7.8-47.3-20.2v87.7c-2.2,40.3-35.5,72.3-76.3,72.3s-76.5-34.2-76.5-76.5,34.2-76.5,76.5-76.5,5.4.1,8.1.4v43.8c-2.2-.5-4.5-.8-6.9-.8-17.6,0-31.8,14.2-31.8,31.8s14.2,31.8,31.8,31.8,31.8-14.2,31.8-31.8V90.5h44.3c3.1,29.6,25.9,53.2,55,57.7.7,0,1.4.2,2.1.3v45.7Z"/>
    </g>
  </g>
</svg>