<?xml version="1.0" encoding="UTF-8"?>
<svg xmlns="http://www.w3.org/2000/svg" version="1.1" viewBox="0 0 425.2 425.2">
  <defs>
    <style>
      .cls-1 {
        fill: #1d1d1b;
      }
    </style>
  </defs>
  <!-- Generator: Adobe Illustrator 28.7.3, SVG Export Plug-In . SVG Version: 1.2.0 Build 164)  -->
  <g>
    <g id="Calque_1">
      <path class="cls-1" d="M390.4,212.3c0,87.2-62.8,159.7-145.7,174.8v-131.1h45.9l5.9-52.2h-51.8v-31c.2-5,.8-9.1,1.4-12.1,1.4-7,4-9.6,4.5-10.1,1-.9,6.8-4.3,9.1-4.8,14-3.3,32.6-1,39-1.7v-47.6c-24.2-5.2-50.8-.5-54,0-12.5,1.9-25.1,5.9-35.9,16.6-10.9,10.9-14.5,24.3-16.2,32.6-2.4,11.1-3,20.6-2.6,27.1v31h-45v52.2h45v132.6c-87.4-11.2-155-85.8-155-176.3S114.5,34.6,212.7,34.6s177.7,79.6,177.7,177.7Z"/>
    </g>
  </g>
</svg>