<?xml version="1.0" encoding="UTF-8"?>
<svg xmlns="http://www.w3.org/2000/svg" version="1.1" viewBox="0 0 1162.2 841.9">
  <defs>
    <style>
      .cls-1 {
        fill: #1e1e1c;
      }
    </style>
  </defs>
  <!-- Generator: Adobe Illustrator 28.7.3, SVG Export Plug-In . SVG Version: 1.2.0 Build 164)  -->
  <g>
    <g id="Calque_1">
      <path class="cls-1" d="M859.1,626.6l-9,9,8.8-9.6-117.7-108.4h0c-2-.8-4.1-1.6-6.1-2.3-10.8-3.3-23.3-3.3-37,0l-56.1,18.2c-6.3-6.1-12.7-12.5-18.8-18.8-21.1-21.9-40.3-45.2-57.5-69.4h0c-8-11.3-15.8-22.9-22.7-34.6-13.7-22.3-25.8-45.8-36-69.6h0l-4.5-12.9-.4-1.2c1.6-1.6,3.5-3.5,5.1-5.1,9-9.2,17.6-19.2,25.4-29.9,1.6-2.3,3.5-4.7,5.1-7.2,1.4-2,3.1-4.3,4.5-6.5.8-1.6,1.6-3.5,2.5-5.3,7.2-17.2,8.4-37.4,2.9-52.8-.4-1.2-1-2.7-1.6-3.9l-49.7-137.9h0c-3.7-6.1-8.6-11.3-14.5-15.1-17.6-11.9-38.1-10.2-47.9-9.4-28.6,2.5-72,23.3-116,56.1-.2,0-.6.4-.8.6-21.5,16.6-22.3,46.4-21.9,57.9v1.2h0v.6c2.5,29.7,7.4,59.5,14.3,88.8,3.1,12.7,6.5,25.4,10.2,37.9h0c6.8,29.7,16,59.1,27.2,87.8,5.3,13.5,11.3,27,17.8,40.3h0c5.7,12.3,11.9,24.3,18.6,36.2,4.7,8.4,9.8,16.6,14.9,24.6h-.2c11.5,21.9,24.6,43,38.9,62.4,6.5,9,13.5,17.8,20.7,26.2,13.5,18.6,28.2,36.2,44,52.8,8.2,8.4,16.6,16.6,25.4,24.3h.2c14.5,15.6,30.3,30.3,46.7,43.6,8.2,6.8,16.8,13.1,25.6,19.2h0c14.7,12.3,30.5,23.5,46.7,33.6,7.2,4.5,14.7,8.8,22.1,12.7,9.2,6.5,18.6,12.5,28.2,17.6,3.9,2,8,4.1,12.1,5.9h0c6.3,2.9,19.2,7.2,34.2,7.2s14.1-1,21.3-3.5c1.8-.6,3.9-1.4,5.7-2.3v.6c30.3-15.3,56.1-34.8,77.1-57.7,8.8-9.4,16.6-19.6,23.7-30.3h0c1.2-1.8,2.3-3.5,3.5-5.3,0,0,0-.4.2-.6,1-1.8,1.8-3.7,2.5-5.7,7-19.4.2-42.8-17.4-60.6v.6ZM647.7,553.1v.4-.4h0ZM635.3,536.1h.8s-.6,0-1,.4v-.4h.2ZM840.3,674.2v.2c-.2.6-.6,1.2-1.2,1.8q-.4.4,0,0c.6-.6-.4.6-.6.8-5.9,9-12.7,17.8-20.3,26-17.4,18.8-38.5,35-63,47.9l-.4-.4c-1,.6-2.3,1.2-3.7,1.6-7.6,2.7-17.8,1-25.4-1.6h0c-3.9-1.8-7.8-3.7-11.7-5.7-8.4-4.5-16.6-9.6-24.8-15.6h0c-8-4.3-15.8-8.8-23.5-13.5-16.2-10-31.7-21.5-46.4-34h-.2c-7.4-4.9-14.5-10.2-21.5-16-16-12.9-31.1-27.2-45.2-42.8l-.4.4c-8-7.2-16-14.7-23.3-22.5-14.9-15.6-29.1-32.3-41.5-50.1-.8-1-1.6-1.8-2.3-2.9-6.1-7.2-11.9-14.5-17.4-22.1-12.7-17.4-24.3-36-34.6-55.5l.6-.4c-5.9-9-11.7-18.2-17-27.6-11.3-19.8-21.1-40.7-29.3-62.2h-.8c-1.4-3.1-2.7-6.3-4.1-9.6-10.4-26.2-18.8-53.2-25.2-80.2h.4c-4.1-13.3-7.8-26.6-11-39.9-6.5-27.6-11-55.9-13.5-83.7-.4-9.8,1.8-21.5,7-25.6h.6c.6-.4,1-.8,1.6-1.2,44.2-32.5,78.2-45.8,94.1-47.1,6.3-.6,16.8-1.4,23.1,2.9.6.4,1,.8,1.4,1.2l48.9,135.2h0s.4.8.8,1.6h0c2,5.7,1.4,16.8-2.5,25.8-2.3,3.3-4.5,6.5-7,9.8-8.2,11-17.2,21.3-26.6,30.7l.6.6s-.2.4-.4.6l-8.8,10.2c-4.5,5.3-5.7,12.1-3.7,18.2,0,1.8.4,3.5,1,5.3l5.1,14.1h-.4c11.7,28.2,25.8,55.7,41.7,82.1,7.4,12.1,15.3,24.1,23.5,35.8h0c18.4,26.2,39.1,51.4,61.8,74.9,10.6,11,21.7,21.9,33.4,32.1h0c2.5.8,5.1,1,7.6,1,6.5,0,12.7-1.6,18.2-4.7l53.2-17.4c5.3-1.2,10.2-1.4,14.1-.8l110.5,101.9h0c7.6,8,10.2,16.6,8.6,20.9l-.4-.8Z"/>
    </g>
  </g>
</svg>